<svg height="512" viewBox="0 0 64 64" width="512" xmlns="http://www.w3.org/2000/svg" xmlns:xlink="http://www.w3.org/1999/xlink"><linearGradient id="linear-gradient" gradientUnits="userSpaceOnUse" x1="32" x2="32" y1="2.056" y2="73.213"><stop offset="0" stop-color="#22e0ff"/><stop offset="1" stop-color="#009cba"/></linearGradient><linearGradient id="linear-gradient-2" x1="32" x2="32" xlink:href="#linear-gradient" y1="16.164" y2="60.242"/><linearGradient id="linear-gradient-3" gradientTransform="matrix(.16 .987 -.987 .16 63.66 -.29)" gradientUnits="userSpaceOnUse" x1="32" x2="32" y1="24.43" y2="69.256"><stop offset="0" stop-color="#f3f7ff"/><stop offset="1" stop-color="#cdd9ff"/></linearGradient><linearGradient id="linear-gradient-4" gradientTransform="matrix(.16 .987 -.987 .16 63.66 -.29)" x1="32" x2="32" xlink:href="#linear-gradient-3" y1="3.984" y2="27.321"/><g id="Capture"><path d="m59.333 15.54h-11.953a2 2 0 0 1 -1.893-1.353l-2.074-6.034a4.665 4.665 0 0 0 -4.413-3.153h-14a4.665 4.665 0 0 0 -4.413 3.153l-2.074 6.034a2 2 0 0 1 -1.893 1.353h-11.953a4.672 4.672 0 0 0 -4.667 4.667v34a4.671 4.671 0 0 0 4.667 4.666h54.666a4.671 4.671 0 0 0 4.667-4.666v-34a4.672 4.672 0 0 0 -4.667-4.667z" fill="url(#linear-gradient)"/><path d="m4.667 59h54.666a4.672 4.672 0 0 0 4.667-4.667v-16.57c-.19 2.639-4.034 16.57-64 16.57a4.672 4.672 0 0 0 4.667 4.667z" fill="url(#linear-gradient-2)"/><g fill="#fff"><path d="m60 48.5a1 1 0 0 1 -1-1v-7.34a1 1 0 0 1 2 0v7.34a1 1 0 0 1 -1 1z"/><path d="m38.793 10h-3.149a1 1 0 0 1 0-2h3.356a1.665 1.665 0 0 1 1.575 1.126 1 1 0 0 1 -1.782.874z"/><path d="m14.205 20.54h-1.205a1 1 0 1 1 0-2h1.207a1 1 0 0 1 0 2z"/><path d="m4 23.62a1 1 0 0 1 -1-1v-2.413a1.669 1.669 0 0 1 1.667-1.667h4.982a1 1 0 1 1 0 2h-4.649v2.08a1 1 0 0 1 -1 1z"/></g><circle cx="32" cy="37.267" fill="url(#linear-gradient-3)" r="12.68" transform="matrix(.16 -.987 .987 .16 -9.911 62.884)"/><circle cx="32" cy="37.267" fill="url(#linear-gradient-4)" r="5.637" transform="matrix(.16 -.987 .987 .16 -9.911 62.884)"/><path d="m30.371 28.224a1 1 0 0 1 -.16-1.988 11.351 11.351 0 0 1 1.789-.143 1 1 0 0 1 0 2 9.2 9.2 0 0 0 -1.468.118.989.989 0 0 1 -.161.013z" fill="#fff"/><path d="m21.827 38.267a1 1 0 0 1 -1-1 11.205 11.205 0 0 1 5.7-9.742 1 1 0 0 1 .982 1.743 9.2 9.2 0 0 0 -4.687 8 1 1 0 0 1 -.995.999z" fill="#fff"/></g></svg>