<svg height="496pt" viewBox="-24 0 496 496.00015" width="496pt" xmlns="http://www.w3.org/2000/svg" xmlns:xlink="http://www.w3.org/1999/xlink"><linearGradient id="a"><stop offset="0" stop-color="#003f8a"/><stop offset=".518" stop-color="#00d7df"/><stop offset="1" stop-color="#006df0"/></linearGradient><linearGradient id="b" gradientUnits="userSpaceOnUse" x1="-130.839925" x2="318.952075" xlink:href="#a" y1="362.840149" y2="-86.951851"/><linearGradient id="c" gradientUnits="userSpaceOnUse" x1="-66.839925" x2="382.952075" xlink:href="#a" y1="426.840149" y2="-22.951851"/><linearGradient id="d" gradientUnits="userSpaceOnUse" x1="-2.839925" x2="446.952075" xlink:href="#a" y1="490.840149" y2="41.048149"/><linearGradient id="e" gradientUnits="userSpaceOnUse" x1="-30.839925" x2="418.952075" xlink:href="#a" y1="462.840149" y2="13.048149"/><linearGradient id="f" gradientUnits="userSpaceOnUse" x1="57.160075" x2="506.952075" xlink:href="#a" y1="550.840149" y2="101.048149"/><path d="m136 88h-80c-4.417969 0-8 3.582031-8 8v80c0 4.417969 3.582031 8 8 8h80c4.417969 0 8-3.582031 8-8v-80c0-4.417969-3.582031-8-8-8zm-8 80h-64v-64h64zm0 0" fill="url(#b)"/><path d="m136 216h-80c-4.417969 0-8 3.582031-8 8v80c0 4.417969 3.582031 8 8 8h80c4.417969 0 8-3.582031 8-8v-80c0-4.417969-3.582031-8-8-8zm-8 80h-64v-64h64zm0 0" fill="url(#c)"/><path d="m136 344h-80c-4.417969 0-8 3.582031-8 8v80c0 4.417969 3.582031 8 8 8h80c4.417969 0 8-3.582031 8-8v-80c0-4.417969-3.582031-8-8-8zm-8 80h-64v-64h64zm0 0" fill="url(#d)"/><path d="m368 160.398438v-72.398438c.003906-.648438-.078125-1.292969-.238281-1.917969-.074219-.199219-.160157-.390625-.257813-.578125-.140625-.410156-.316406-.804687-.527344-1.183594-.082031-.128906-.089843-.28125-.175781-.398437-.269531-.601563-.652343-1.140625-1.121093-1.601563l-80-80c-.457032-.46875-1-.847656-1.601563-1.121093-.117187-.085938-.277344-.101563-.40625-.183594-.375-.203125-.765625-.378906-1.167969-.519531-.1875-.097656-.382812-.183594-.582031-.257813-.628906-.160156-1.273437-.24218725-1.921875-.238281h-272c-4.417969 0-8 3.582031-8 8v480c0 4.417969 3.582031 8 8 8h352c4.417969 0 8-3.582031 8-8v-152.398438c45.148438-4.320312 79.621094-42.246093 79.621094-87.601562s-34.472656-83.28125-79.621094-87.601562zm-80-133.085938 52.6875 52.6875h-52.6875zm64 452.6875h-336v-464h256v72c0 4.417969 3.582031 8 8 8h72v64.398438c-45.148438 4.320312-79.617188 42.246093-79.617188 87.601562s34.46875 83.28125 79.617188 87.601562zm8-160c-39.765625 0-72-32.234375-72-72s32.234375-72 72-72 72 32.234375 72 72c-.0625 39.738281-32.261719 71.9375-72 72zm0 0" fill="url(#e)"/><path d="m408 224h-24v-24c0-4.417969-3.582031-8-8-8h-32c-4.417969 0-8 3.582031-8 8v24h-24c-4.417969 0-8 3.582031-8 8v32c0 4.417969 3.582031 8 8 8h24v24c0 4.417969 3.582031 8 8 8h32c4.417969 0 8-3.582031 8-8v-24h24c4.417969 0 8-3.582031 8-8v-32c0-4.417969-3.582031-8-8-8zm-8 32h-32v32h-16v-32h-32v-16h32v-32h16v32h32zm0 0" fill="url(#f)"/></svg>