<svg id="Layer_1" enable-background="new 0 0 512 512" height="512" viewBox="0 0 512 512" width="512" xmlns="http://www.w3.org/2000/svg"><g><g><path clip-rule="evenodd" d="m116.527 212.135v152.685c0 5.049-.17 7.885.539 9.899.68 2.014 2.154 3.234 5.386 5.049l44.561 24.819c28.261-7.46 78.605-23.741 88.98-80.952v-32.279l-47.594-48.673-89.802-27.854c-1.503-.482-2.07-1.73-2.07-2.694z" fill="#e7ecf1" fill-rule="evenodd"/></g><g><path clip-rule="evenodd" d="m393.415 214.829-83.225 33.13-54.198 43.397v32.279c0 35.682 56.551 70.599 88.98 80.952l44.589-24.819c3.231-1.815 4.706-3.035 5.386-5.049s.539-4.85.539-9.899v-152.657c-.03.965-.625 2.099-2.071 2.666z" fill="#808b95" fill-rule="evenodd"/></g><g><path clip-rule="evenodd" d="m344.971 404.587c-4.252-45.411-42.463-80.952-88.98-80.952-46.488 0-84.699 35.54-88.98 80.952-.255 2.78-.397 5.616-.397 8.481 0 49.382 40.025 89.433 89.376 89.433 49.38 0 89.376-40.05 89.376-89.433.002-2.865-.111-5.702-.395-8.481z" fill="#ffdb4e" fill-rule="evenodd"/></g><g><path clip-rule="evenodd" d="m344.971 404.587c-4.252-45.411-42.463-80.952-88.98-80.952-9.581 0-18.794 1.503-27.468 4.311h.482c46.488 0 84.699 35.512 88.98 80.923.255 2.808.397 5.645.397 8.509 0 39.795-25.994 73.52-61.909 85.121 49.124-.255 88.895-40.192 88.895-89.433 0-2.863-.113-5.7-.397-8.479z" fill="#ffaf5d" fill-rule="evenodd"/></g><g><path clip-rule="evenodd" d="m255.992 132.913-137.396 76.527c-1.389.766-2.069 1.73-2.069 2.695 0 .964.68 1.929 2.069 2.695l137.395 76.527 61.228-34.094 76.195-42.433c1.361-.766 2.041-1.702 2.069-2.666v-.028c0-.964-.709-1.929-2.069-2.695z" fill="#c6d0da" fill-rule="evenodd"/></g><g><path d="m285.274 446.266h-15.307c-5.59 0-10.137-4.548-10.137-10.138v-46.12c0-5.59 4.547-10.138 10.137-10.138h15.307c14.045 0 25.472 11.419 25.472 25.455v15.487c-.001 14.035-11.427 25.454-25.472 25.454zm-10.444-15h10.443c5.774 0 10.472-4.69 10.472-10.455v-15.487c0-5.765-4.697-10.455-10.472-10.455h-10.443z"/></g><g><path d="m239.834 420.568h-31.067c-4.142 0-7.5-3.358-7.5-7.5s3.358-7.5 7.5-7.5h31.067c4.142 0 7.5 3.358 7.5 7.5s-3.358 7.5-7.5 7.5z"/></g><g><path d="m234.051 446.266h-25.285c-4.142 0-7.5-3.358-7.5-7.5s3.358-7.5 7.5-7.5h23.567v-36.396h-23.567c-4.142 0-7.5-3.358-7.5-7.5s3.358-7.5 7.5-7.5h25.285c7.324 0 13.283 5.96 13.283 13.287v39.823c0 7.325-5.958 13.286-13.283 13.286z"/></g><path d="m511.548 429.903-12.728-44.674c-1.136-3.984-5.286-6.292-9.268-5.158-3.984 1.135-6.293 5.284-5.158 9.268l9.016 31.645-90.446-50.384c.031-1.101.021-57.403.021-57.403 0-4.142-3.357-7.5-7.5-7.5s-7.5 3.358-7.5 7.5c0 0 .028 57.843-.087 58.788-.296.221-37.167 20.812-37.167 20.812-8.833-41.374-44.127-73.055-87.239-76.374v-20.659l124.492-69.326v52.098c0 4.142 3.357 7.5 7.5 7.5s7.5-3.358 7.5-7.5v-66.401c0-3.977-2.548-7.369-5.921-9.248l-133.571-74.382v-102.789l23.251 23.265c1.465 1.465 3.385 2.198 5.305 2.198 1.919 0 3.837-.732 5.302-2.195 2.93-2.928 2.932-7.677.003-10.607l-32.794-32.815c-2.222-2.264-5.339-3.562-8.567-3.562-3.23 0-6.262 1.254-8.537 3.531l-32.825 32.847c-2.928 2.93-2.926 7.679.003 10.607 2.929 2.927 7.677 2.926 10.607-.003l23.251-23.267v102.79l-51.991 28.943c-3.619 2.015-4.92 6.582-2.905 10.201 2.016 3.62 6.583 4.919 10.201 2.905l52.194-29.057 126.847 70.637-126.846 70.637-126.844-70.65 48.194-27.028c3.613-2.026 4.899-6.597 2.873-10.21s-6.598-4.899-10.21-2.873l-55.059 30.878c-3.4 1.894-5.951 5.313-5.919 9.321 0 0-.069 156.463-.017 158.412l-90.414 50.353 8.994-31.639c1.132-3.984-1.179-8.132-5.164-9.265-3.983-1.13-8.132 1.179-9.265 5.164l-12.708 44.711c-.861 3.09-.483 6.327 1.064 9.114 1.559 2.807 4.215 4.909 7.25 5.756l44.646 12.735c.688.196 1.38.29 2.061.29 3.265 0 6.268-2.149 7.208-5.445 1.136-3.983-1.172-8.133-5.155-9.27l-31.661-9.031 89.615-49.908c1.059.784 43.734 24.641 43.734 24.641-.061 1.406-.098 2.819-.098 4.24 0 53.449 43.458 96.933 96.876 96.933 53.417 0 96.876-43.484 96.876-96.933 0-1.421-.037-2.833-.098-4.239 0 0 42.818-23.931 43.779-24.633l89.581 49.903-31.645 9.027c-3.983 1.136-6.291 5.287-5.154 9.27.939 3.296 3.943 5.445 7.208 5.445.681 0 1.374-.094 2.062-.29l44.649-12.737c3.037-.868 5.667-2.964 7.219-5.757 1.558-2.808 1.945-6.044 1.079-9.153zm-387.441-57.916c-.111-.94-.08-145.548-.08-145.548l124.465 69.325v20.66c-43.107 3.318-78.397 34.991-87.236 76.358-13.539-7.563-36.936-20.638-37.149-20.795zm131.885 123.013c-45.147 0-81.876-36.755-81.876-81.933s36.729-81.933 81.876-81.933 81.876 36.755 81.876 81.933-36.729 81.933-81.876 81.933z"/></g></svg>